<?xml version="1.0" encoding="UTF-8" standalone="no"?>
<!DOCTYPE svg PUBLIC "-//W3C//DTD SVG 1.1//EN" "http://www.w3.org/Graphics/SVG/1.1/DTD/svg11.dtd">
<svg width="100%" height="100%" viewBox="0 0 512 512" version="1.1" xmlns="http://www.w3.org/2000/svg" xmlns:xlink="http://www.w3.org/1999/xlink" xml:space="preserve" xmlns:serif="http://www.serif.com/" style="fill-rule:evenodd;clip-rule:evenodd;stroke-linejoin:round;stroke-miterlimit:2;">
    <rect x="-8.705" y="-8.379" width="533.667" height="525.699" style="fill:rgb(47,73,94);"/>
    <g>
        <path d="M80,323.998L142.304,323.998L123.054,383.729L80,383.729L80,323.998ZM80,210.454L179,210.454L159.75,270.184L80,270.184L80,210.454ZM80,96.909L215.701,96.909L196.451,156.64L80,156.64L80,96.909ZM277.109,96.909L432,96.909L432,156.64L257.804,156.64L277.109,96.909ZM221.108,270.184L240.358,210.454L432,210.454L432,270.184L221.108,270.184ZM203.711,324.01L432,324.01L432,383.74L184.407,383.74L203.711,324.01Z" style="fill:rgb(253,87,80);"/>
        <path d="M283.921,189.451L270.232,213.553L223.417,131.106L79.704,384.171L177.007,384.171C177.007,397.481 187.62,408.272 200.711,408.272L79.704,408.272C71.236,408.272 63.412,403.676 59.179,396.219C54.946,388.763 54.946,379.576 59.18,372.12L202.894,119.055C207.128,111.598 214.953,107.004 223.422,107.004C231.891,107.004 239.716,111.598 243.951,119.055L283.921,189.451L283.921,189.451Z" style="fill:rgb(0,197,142);fill-rule:nonzero;"/>
        <path d="M387.664,372.12L297.61,213.553L283.921,189.451L270.232,213.553L180.188,372.12C175.954,379.576 175.953,388.763 180.187,396.219C184.42,403.676 192.243,408.272 200.711,408.272L367.111,408.272C375.581,408.272 383.408,403.681 387.643,396.224C391.879,388.766 391.879,379.578 387.644,372.12L387.664,372.12ZM200.711,384.171L283.921,237.654L367.111,384.171L200.711,384.171Z" style="fill:white;fill-rule:nonzero;"/>
        <path d="M452.049,396.221C447.816,403.677 439.993,408.272 431.526,408.272L367.111,408.272C380.202,408.272 390.815,397.481 390.815,384.171L431.477,384.171L316.099,180.986L297.61,213.553L283.921,189.451L295.575,168.935C299.809,161.477 307.635,156.883 316.104,156.883C324.573,156.883 332.398,161.477 336.632,168.935L452.049,372.12C456.284,379.577 456.284,388.764 452.049,396.221L452.049,396.221Z" style="fill:rgb(16,135,117);fill-rule:nonzero;"/>
    </g>
</svg>
